<svg xmlns="http://www.w3.org/2000/svg" width="24" height="24" fill="none"><path fill="#3B82F6" d="M24 11.543a3.802 3.802 0 0 1-1.123 2.694L17.38 19.58a3.995 3.995 0 0 1-1.07.729 4.06 4.06 0 0 1-1.718.378c-.616 0-1.172-.156-1.693-.399-.409-.19-.81-.43-1.127-.738l-1.16-1.128-3.356-3.261a2.41 2.41 0 0 1 1.877-.886c.567 0 1.088.192 1.498.513l2.872 2.791c.285.261.666.418 1.088.418.423 0 .807-.16 1.092-.42l5.13-4.986a1.52 1.52 0 0 0 0-2.094l-5.144-5a1.613 1.613 0 0 0-1.077-.407c-.415 0-.794.155-1.077.408L11 7.942l-3.705 3.601-1.88 1.827-4.738 4.605a.406.406 0 0 1-.562 0A.381.381 0 0 1 0 17.74V15.3a.76.76 0 0 1 .211-.525l2.241-2.178a1.52 1.52 0 0 0-.04-2.146L.227 8.327A.775.775 0 0 1 0 7.786V5.347a.381.381 0 0 1 .115-.235.407.407 0 0 1 .563 0l3.626 3.524c.287.273.679.437 1.112.437a1.61 1.61 0 0 0 1.112-.438L11.813 3.5c.309-.292.666-.537 1.06-.72a4.062 4.062 0 0 1 1.72-.379c.616 0 1.199.136 1.72.379.396.185.757.432 1.068.728l5.496 5.342c.298.298.546.643.733 1.022.25.506.39 1.073.39 1.672Z"/></svg>